# xmcd
#
# Track frame offsets:
#	150
#	19825
#	35448
#	47073
#	64746
#	86596
#	102633
#	120300
#	129905
#	151640
#	161933
#	175615
#
# Disc length: 2539 seconds
#
# Revision: 0
# Processed by: cddbd v1.4PL0 Copyright (c) Steve Scherf et al.
# Submitted via: dBpowerAMP V4.0
#
DISCID=9009e90c
DTITLE=Willie Nelson - Always On My Mind
DYEAR=1900
DGENRE=
TTITLE0=Georgia On My Mind
TTITLE1=Mamas Don't Let Your Babies Grow Up To Be Cowboys
TTITLE2=On The Road Again
TTITLE3=Stardust
TTITLE4=City of New Orleans
TTITLE5=Always On My Mind
TTITLE6=All Of Me
TTITLE7=If You've Got The Money, I've Got The Time
TTITLE8=Pancho and Lefty
TTITLE9=What A Wonderful World
TTITLE10=Heartbreak Hotel
TTITLE11=Nothing I Can Do About It Now
EXTD=Album title:  Always On My Mind\nArtist:  Willie Nelson\nPublisher:  Sugo Music - Sony Music Special Products
EXTT0=
EXTT1=
EXTT2=
EXTT3=
EXTT4=
EXTT5=
EXTT6=
EXTT7=
EXTT8=
EXTT9=
EXTT10=
EXTT11=
PLAYORDER=
